{"asset":{"version":"2.0","generator":"THREE.GLTFExporter r175"},"scenes":[{"name":"AuxScene","nodes":[5]}],"scene":0,"nodes":[{"mesh":0},{"matrix":[0.13786434582358434,0,-0.13786434582358437,0,0,-0.19496962763140757,0,0,0.13786434582358437,0,0.13786434582358434,0,0,0,0,1],"children":[0]},{"children":[1]},{"matrix":[1,0,0,0,0,1,0,0,0,0,1,0,-132.62295930901328,105.29629622275957,132.07150195037107,1],"children":[2]},{"children":[3]},{"children":[4]}],"bufferViews":[{"buffer":0,"byteOffset":0,"byteLength":20160,"target":34962,"byteStride":12},{"buffer":0,"byteOffset":20160,"byteLength":13440,"target":34962,"byteStride":8},{"buffer":0,"byteOffset":33600,"byteLength":20160,"target":34962,"byteStride":12}],"buffers":[{"byteLength":53760,"uri":"data:application/octet-stream;base64,"}],"accessors":[{"bufferView":0,"componentType":5126,"count":1680,"max":[1187.699951171875,788.8699951171875,50.599998474121094],"min":[732.2990112304688,291.1300048828125,-0.6000000238418579],"type":"VEC3"},{"bufferView":1,"componentType":5126,"count":1680,"max":[1187.699951171875,788.8699951171875],"min":[291.1300048828125,-49.599998474121094],"type":"VEC2"},{"bufferView":2,"componentType":5126,"count":1680,"max":[0.938224732875824,0.9596448540687561,1],"min":[-0.9381718635559082,-0.9596091508865356,-1],"type":"VEC3"}],"materials":[{"pbrMetallicRoughness":{"baseColorFactor":[0.6375968739867731,0.6653872982754769,0.7083757798856457,1],"metallicFactor":0,"roughnessFactor":0},"doubleSided":true}],"meshes":[{"primitives":[{"mode":4,"attributes":{"POSITION":0,"TEXCOORD_0":1,"NORMAL":2},"material":0}]}]}